<svg width="32" height="32" viewBox="0 0 32 32" fill="none" xmlns="http://www.w3.org/2000/svg">
  <rect width="32" height="32" rx="8" fill="#1E40AF"/>
  <!-- Building2 icon design -->
  <path d="M6 28V8l8-4v24H6z" fill="white"/>
  <path d="M18 28V4l8 4v20h-8z" fill="white"/>
  <path d="M10 12h2v2h-2v-2zm0 4h2v2h-2v-2zm0 4h2v2h-2v-2z" fill="#1E40AF"/>
  <path d="M22 8h2v2h-2V8zm0 4h2v2h-2v-2zm0 4h2v2h-2v-2zm0 4h2v2h-2v-2z" fill="#1E40AF"/>
  <!-- Privacy indicator -->
  <circle cx="26" cy="6" r="2" fill="#10B981"/>
  <path d="M25 6h2M26 5v2" stroke="white" stroke-width="0.5" stroke-linecap="round"/>
</svg>
